<svg width="107" height="101" viewBox="0 0 107 101" fill="none" xmlns="http://www.w3.org/2000/svg">
<g clip-path="url(#clip0_75_17)">
<path d="M81.9219 0H25.0781C11.2279 0 0 10.5983 0 23.6719V77.3281C0 90.4017 11.2279 101 25.0781 101H81.9219C95.7721 101 107 90.4017 107 77.3281V23.6719C107 10.5983 95.7721 0 81.9219 0Z" fill="url(#paint0_radial_75_17)"/>
<path d="M81.9219 0H25.0781C11.2279 0 0 10.5983 0 23.6719V77.3281C0 90.4017 11.2279 101 25.0781 101H81.9219C95.7721 101 107 90.4017 107 77.3281V23.6719C107 10.5983 95.7721 0 81.9219 0Z" fill="url(#paint1_radial_75_17)"/>
<path d="M53.5038 11.0469C42.1526 11.0469 40.7277 11.0938 36.2697 11.2852C31.82 11.4777 28.7826 12.1425 26.1251 13.1182C23.3757 14.1258 21.0439 15.4739 18.7208 17.6675C16.3957 19.8607 14.9675 22.0618 13.8966 24.6558C12.8601 27.1651 12.1549 30.0333 11.9547 34.2315C11.7554 38.44 11.7031 39.7853 11.7031 50.5004C11.7031 61.2155 11.7533 62.5561 11.9556 66.7642C12.1604 70.9643 12.8647 73.8314 13.8975 76.3398C14.9658 78.9351 16.394 81.1361 18.7179 83.329C21.0405 85.5237 23.3724 86.875 26.1197 87.8826C28.7792 88.8583 31.817 89.5231 36.2659 89.7156C40.7244 89.907 42.148 89.9539 53.4987 89.9539C64.8512 89.9539 66.2715 89.907 70.7295 89.7156C75.1792 89.5231 78.2199 88.8583 80.8795 87.8826C83.6276 86.875 85.9561 85.5237 88.2783 83.329C90.6035 81.1361 92.0313 78.9351 93.1025 76.341C94.1299 73.8314 94.8354 70.9636 95.0444 66.7649C95.2446 62.5569 95.2969 61.2155 95.2969 50.5004C95.2969 39.7853 95.2446 38.4408 95.0444 34.2323C94.8354 30.0321 94.1299 27.1655 93.1025 24.657C92.0313 22.0618 90.6035 19.8607 88.2783 17.6675C85.9536 15.4731 83.6284 14.125 80.877 13.1186C78.2124 12.1425 75.1733 11.4773 70.7237 11.2852C66.2652 11.0938 64.8458 11.0469 53.4908 11.0469H53.5038ZM49.7542 18.1567C50.8672 18.1551 52.109 18.1567 53.5038 18.1567C64.6639 18.1567 65.9864 18.1946 70.3935 18.3836C74.4687 18.5595 76.6805 19.2022 78.1539 19.7423C80.1045 20.4572 81.4951 21.3122 82.9572 22.6934C84.4201 24.0743 85.3254 25.3893 86.0848 27.2305C86.657 28.6193 87.3388 30.7072 87.5243 34.5538C87.7245 38.713 87.768 39.9621 87.768 50.4913C87.768 61.0206 87.7245 62.2701 87.5243 66.4288C87.3379 70.2755 86.657 72.3633 86.0848 73.7525C85.3275 75.5938 84.4201 76.9048 82.9572 78.2849C81.4943 79.6657 80.1054 80.5203 78.1539 81.2356C76.6822 81.7781 74.4687 82.4192 70.3935 82.5951C65.9872 82.7841 64.6639 82.8251 53.5038 82.8251C42.3432 82.8251 41.0203 82.7841 36.6145 82.5951C32.5393 82.4176 30.3274 81.7749 28.8528 81.2348C26.9026 80.5195 25.5091 79.6649 24.0462 78.2841C22.5833 76.9032 21.6779 75.5914 20.9185 73.7493C20.3463 72.3602 19.6646 70.2723 19.479 66.4257C19.2788 62.2665 19.2387 61.0174 19.2387 50.4815C19.2387 39.9459 19.2788 38.7031 19.479 34.544C19.6654 30.6973 20.3463 28.6094 20.9185 27.2187C21.6763 25.3774 22.5833 24.0625 24.0466 22.6816C25.5095 21.3007 26.9026 20.4458 28.8532 19.7293C30.3266 19.1868 32.5393 18.5457 36.6145 18.369C40.4702 18.2045 41.9645 18.1551 49.7542 18.1469V18.1567ZM75.8149 24.7075C73.0459 24.7075 70.7993 26.8262 70.7993 29.4403C70.7993 32.0541 73.0459 34.1747 75.8149 34.1747C78.584 34.1747 80.8306 32.0541 80.8306 29.4403C80.8306 26.8265 78.584 24.7059 75.8149 24.7059V24.7075ZM53.5038 30.2392C41.6502 30.2392 32.0394 39.3111 32.0394 50.5004C32.0394 61.6897 41.6502 70.7572 53.5038 70.7572C65.3578 70.7572 74.9652 61.6897 74.9652 50.5004C74.9652 39.3115 65.3569 30.2392 53.5029 30.2392H53.5038ZM53.5038 37.3491C61.1982 37.3491 67.4363 43.2367 67.4363 50.5004C67.4363 57.7633 61.1982 63.6517 53.5038 63.6517C45.809 63.6517 39.5716 57.7633 39.5716 50.5004C39.5716 43.2367 45.809 37.3491 53.5038 37.3491Z" fill="white"/>
</g>
<defs>
<radialGradient id="paint0_radial_75_17" cx="0" cy="0" r="1" gradientUnits="userSpaceOnUse" gradientTransform="translate(28.4219 108.779) rotate(-90) scale(100.098 98.6302)">
<stop stop-color="#FFDD55"/>
<stop offset="0.1" stop-color="#FFDD55"/>
<stop offset="0.5" stop-color="#FF543E"/>
<stop offset="1" stop-color="#C837AB"/>
</radialGradient>
<radialGradient id="paint1_radial_75_17" cx="0" cy="0" r="1" gradientUnits="userSpaceOnUse" gradientTransform="translate(-17.9229 7.27555) rotate(78.0275) scale(44.8499 194.937)">
<stop stop-color="#3771C8"/>
<stop offset="0.128" stop-color="#3771C8"/>
<stop offset="1" stop-color="#6600FF" stop-opacity="0"/>
</radialGradient>
<clipPath id="clip0_75_17">
<rect width="107" height="101" fill="white"/>
</clipPath>
</defs>
</svg>
